<svg xmlns="http://www.w3.org/2000/svg" xmlns:xlink="http://www.w3.org/1999/xlink" id="Layer_1" x="0px" y="0px" viewBox="0 0 282 273" style="enable-background:new 0 0 282 273;" xml:space="preserve"> <style type="text/css"> .st0{fill:#DFE8EF;} .st1{fill:#F9FBFC;} .st2{fill:#112B46;} .st3{fill:#EBF0F2;} .st4{fill:#CFE0E5;} .st5{fill:#FFFFFF;} .st6{fill:#012B3A;} .st7{fill:#01405C;} .st8{fill:#00CDC4;} .st9{fill:#FBD15B;} .st10{fill:#FDD042;} .st11{fill:#FFDC83;} .st12{fill:#FFC8AF;} .st13{fill:#EFA689;} .st14{fill:#EABD3F;} .st15{fill:#FFD3C2;} .st16{fill:#EEEEEE;} .st17{fill:#F1F2F2;} .st18{fill:#00A6D2;} </style> <g> <path class="st0" d="M268,268H43.2c-5.5,0-10-4.5-10-10v-52c0-5.5,4.5-10,10-10H268c5.5,0,10,4.5,10,10v52 C278,263.5,273.5,268,268,268z"></path> <path class="st0" d="M251.1,217.8h-33.2c-5.5,0-10-4.5-10-10v-54c0-5.5,4.5-10,10-10h33.2c5.5,0,10,4.5,10,10v54 C261.1,213.3,256.6,217.8,251.1,217.8z"></path> <g> <g> <g> <path class="st1" d="M212.1,218.2h-55.3v-54.9h55.3V218.2z M157.6,217.4h53.7V164h-53.7V217.4z"></path> </g> <g> <rect x="157.2" y="208.4" class="st1" width="54.5" height="0.8"></rect> </g> <g> <rect x="157.2" y="199.3" class="st1" width="54.5" height="0.8"></rect> </g> <g> <rect x="157.2" y="190.3" class="st1" width="54.5" height="0.8"></rect> </g> <g> <rect x="157.2" y="181.3" class="st1" width="54.5" height="0.8"></rect> </g> <g> <rect x="157.2" y="172.3" class="st1" width="54.5" height="0.8"></rect> </g> <g> <rect x="202.2" y="163.6" class="st1" width="0.8" height="54.1"></rect> </g> <g> <rect x="193.1" y="163.6" class="st1" width="0.8" height="54.1"></rect> </g> <g> <rect x="184" y="163.6" class="st1" width="0.8" height="54.1"></rect> </g> <g> <rect x="175" y="163.6" class="st1" width="0.8" height="54.1"></rect> </g> <g> <rect x="165.9" y="163.6" class="st1" width="0.8" height="54.1"></rect> </g> </g> <g> <g> <path class="st1" d="M266.6,218.2h-55.3v-54.9h55.3V218.2z M212.1,217.4h53.7V164h-53.7V217.4z"></path> </g> <g> <rect x="211.7" y="208.4" class="st1" width="54.5" height="0.8"></rect> </g> <g> <rect x="211.7" y="199.3" class="st1" width="54.5" height="0.8"></rect> </g> <g> <rect x="211.7" y="190.3" class="st1" width="54.5" height="0.8"></rect> </g> <g> <rect x="211.7" y="181.3" class="st1" width="54.5" height="0.8"></rect> </g> <g> <rect x="211.7" y="172.3" class="st1" width="54.5" height="0.8"></rect> </g> <g> <rect x="256.8" y="163.6" class="st1" width="0.8" height="54.1"></rect> </g> <g> <rect x="247.7" y="163.6" class="st1" width="0.8" height="54.1"></rect> </g> <g> <rect x="238.6" y="163.6" class="st1" width="0.8" height="54.1"></rect> </g> <g> <rect x="229.5" y="163.6" class="st1" width="0.8" height="54.1"></rect> </g> <g> <rect x="220.4" y="163.6" class="st1" width="0.8" height="54.1"></rect> </g> </g> </g> <g> <path class="st0" d="M213.9,103.7c-0.3-4.4-1.5-8.7-3.7-12.5l3.6-2c-1.8-3.3-4.2-6.2-7-8.8l-2.8,3.1c-3.2-2.8-7.1-5-11.4-6.3 l1.1-4l-0.1,0c-3-0.9-6.1-1.3-9.1-1.3c-0.7,0-1.3,0-2,0.1l0.2,4.2c-4.5,0.3-8.7,1.5-12.5,3.7l-2-3.6c-3.3,1.8-6.2,4.2-8.8,7 l3.1,2.8c-2.8,3.2-5,7.1-6.3,11.4l-4-1.1l0,0.1c-0.9,3-1.3,6.1-1.3,9.1c0,0.6,0,1.3,0.1,1.9l4.2-0.2c0.3,4.5,1.5,8.7,3.6,12.5 l-3.6,2c1.8,3.3,4.2,6.2,7,8.8l2.8-3.1c3.2,2.8,7,5.1,11.4,6.3l-1.1,4l0.1,0c3,0.9,6.1,1.3,9.1,1.3c0.7,0,1.3,0,2-0.1l-0.3-4.2 c4.4-0.3,8.7-1.6,12.5-3.7l2,3.6c3.3-1.8,6.2-4.2,8.7-7l-3.1-2.8c2.8-3.2,5-7.1,6.3-11.4l4,1.1l0,0c0.9-3,1.3-6.1,1.3-9.1 c0-0.7,0-1.3-0.1-2L213.9,103.7z M177.4,131.2L177.4,131.2l0.2-0.7L177.4,131.2z M201.7,110.3c-2.2,7.8-9.3,12.9-17.1,12.9 c-1.6,0-3.2-0.2-4.8-0.7c-7.8-2.2-12.9-9.3-12.9-17.1c0-1.6,0.2-3.2,0.7-4.8c2.2-7.8,9.3-12.9,17.1-12.9c1.6,0,3.2,0.2,4.8,0.7 c7.8,2.2,12.9,9.3,12.9,17.1C202.4,107.1,202.2,108.7,201.7,110.3z"></path> <polygon class="st0" points="266.8,76.8 266.8,76.8 266.8,76.8 "></polygon> <path class="st0" d="M272.9,109.3l-2.8,0.5c-0.4-2.2-1.2-4.2-2.2-6.1l2.5-1.4c-1.8-3.2-4.3-6-7.4-8.1l-1.6,2.3 c-1.8-1.2-3.7-2.1-5.9-2.8l0.8-2.7l-0.1,0c-2.1-0.6-4.3-0.9-6.4-0.9c-1.5,0-3,0.1-4.4,0.4l0.5,2.8c-2.2,0.4-4.2,1.2-6.1,2.2 l-1.4-2.5c-3.2,1.8-6,4.3-8.1,7.4l2.3,1.6c-1.2,1.8-2.1,3.7-2.8,5.9l-2.7-0.8l-0.1,0.2c-0.6,2.1-0.9,4.3-0.9,6.4 c0,1.5,0.1,2.9,0.4,4.4l2.8-0.5c0.4,2.2,1.1,4.2,2.2,6.1l-2.5,1.3h0c1.8,3.2,4.3,6,7.4,8.2l1.6-2.3c1.8,1.2,3.7,2.1,5.9,2.8 l-0.8,2.7h0l0.2,0.1c2.1,0.6,4.3,0.9,6.4,0.9c1.5,0,3.1-0.2,4.6-0.4l-0.5-2.8c2.2-0.4,4.2-1.2,6.1-2.2l1.4,2.5 c3.2-1.8,6-4.3,8.1-7.4l-2.3-1.6c1.2-1.8,2.1-3.7,2.8-5.9l2.7,0.8l0-0.1c0.6-2.1,0.9-4.3,0.9-6.4 C273.3,112.3,273.2,110.8,272.9,109.3z M249.7,127.9c-1.3,0-2.5-0.2-3.8-0.5c-6.2-1.7-10.2-7.4-10.2-13.5c0-1.3,0.2-2.5,0.5-3.8 c1.7-6.2,7.4-10.2,13.5-10.2c1.3,0,2.6,0.2,3.8,0.5c6.2,1.7,10.2,7.4,10.2,13.5c0,1.3-0.2,2.6-0.5,3.8 C261.5,123.9,255.8,127.9,249.7,127.9z"></path> </g> <g> <path class="st2" d="M232.7,205.8H61.5c-1,0-1.8-0.8-1.8-1.8V102c0-1,0.8-1.8,1.8-1.8h171.3c1,0,1.8,0.8,1.8,1.8v102 C234.6,205,233.8,205.8,232.7,205.8z"></path> <rect x="99.1" y="70.3" transform="matrix(-1.836970e-16 1 -1 -1.836970e-16 300.1253 5.9151)" class="st3" width="96.1" height="165.4"></rect> <g> <g> <path class="st4" d="M64.5,182.2l-0.1-0.8c16.2-2.7,31-7,44-12.8c26.7-12,46-35.2,53.1-63.7l0.8,0.2 c-7.1,28.7-26.6,52.1-53.5,64.2C95.6,175.2,80.7,179.5,64.5,182.2z"></path> </g> <g> <path class="st4" d="M64.5,182.7l-0.1-0.8c17.4-2.7,33.2-7.1,47.2-13.1c27.7-12,47.7-35.3,54.9-63.9l0.7,0.2 c-7.3,28.8-27.5,52.3-55.4,64.4C97.8,175.6,81.9,180,64.5,182.7z"></path> </g> <g> <path class="st4" d="M64.5,183.1l-0.1-0.7c18.6-2.6,35.5-7.1,50.3-13.3c28.7-12.1,49.3-35.5,56.7-64.2l0.7,0.2 c-7.5,28.9-28.3,52.5-57.2,64.7C100.1,176,83.1,180.5,64.5,183.1z"></path> </g> <g> <path class="st4" d="M64.5,183.6l-0.1-0.7c19.7-2.6,37.7-7.1,53.5-13.6c29.7-12.1,51-35.6,58.6-64.4l0.7,0.2 c-7.6,29-29.1,52.7-59,64.9C102.3,176.4,84.3,181,64.5,183.6z"></path> </g> <g> <path class="st4" d="M64.5,184l-0.1-0.7c21-2.6,40.1-7.2,56.6-13.8c30.6-12.1,52.7-35.7,60.4-64.7l0.7,0.2 c-7.8,29.2-30,52.9-60.8,65.1C104.6,176.8,85.5,181.4,64.5,184z"></path> </g> <g> <path class="st4" d="M64.5,184.4l-0.1-0.6c22.2-2.5,42.3-7.2,59.8-13.9c31.6-12.2,54.3-35.8,62.3-64.9l0.6,0.2 c-8,29.3-30.8,53.1-62.7,65.3C106.8,177.2,86.7,181.9,64.5,184.4z"></path> </g> <g> <path class="st4" d="M64.5,184.8l-0.1-0.6c23.4-2.5,44.6-7.2,62.9-14.1c32.6-12.2,56-36,64.1-65.2l0.6,0.2 c-8.1,29.4-31.7,53.3-64.5,65.6C109.1,177.5,87.9,182.3,64.5,184.8z"></path> </g> <g> <path class="st4" d="M64.4,185.1l-0.1-0.6c24.6-2.4,46.8-7.2,66.1-14.2c33.7-12.3,57.7-36.1,66-65.4l0.6,0.2 c-8.3,29.5-32.5,53.5-66.3,65.8C111.3,177.9,89.1,182.7,64.4,185.1z"></path> </g> <g> <path class="st4" d="M64.4,185.5l-0.1-0.6c25.8-2.4,49.1-7.2,69.2-14.4c34.7-12.3,59.4-36.2,67.8-65.7l0.5,0.2 c-8.5,29.6-33.3,53.7-68.2,66C113.6,178.3,90.3,183.1,64.4,185.5z"></path> </g> <g> <path class="st4" d="M64.4,185.8l0-0.5c27-2.3,51.3-7.2,72.4-14.5c35.7-12.3,61.1-36.3,69.7-65.9l0.5,0.2 c-8.6,29.7-34.1,53.9-70,66.3C115.9,178.6,91.5,183.5,64.4,185.8z"></path> </g> <g> <path class="st4" d="M64.4,186.2l0-0.5c28.2-2.3,53.6-7.2,75.5-14.6c36.7-12.4,62.8-36.5,71.5-66.1l0.5,0.1 c-8.8,29.8-35,54.1-71.9,66.5C118.1,179,92.7,183.9,64.4,186.2z"></path> </g> <g> <path class="st4" d="M64.4,186.5l0-0.5c29.4-2.2,55.9-7.2,78.7-14.7c37.8-12.4,64.5-36.6,73.4-66.4l0.5,0.1 c-8.9,29.9-35.8,54.2-73.7,66.7C120.4,179.3,93.9,184.3,64.4,186.5z"></path> </g> <g> <path class="st4" d="M64.4,186.8l0-0.5c30.1-2.1,58.4-7.3,81.9-14.8c38.8-12.5,66.2-36.8,75.2-66.6l0.4,0.1 c-9.1,30-36.6,54.4-75.5,67C122.9,179.5,94.6,184.6,64.4,186.8z"></path> </g> <g> <path class="st4" d="M64.4,187.1l0-0.4c31.3-2.1,60.7-7.2,85-14.9c39.8-12.5,67.9-36.9,77.1-66.9l0.4,0.1 c-9.2,30.2-37.4,54.6-77.4,67.2C125.2,179.9,95.8,185,64.4,187.1z"></path> </g> <g> <path class="st4" d="M64.4,187.4l0-0.4c32.6-2.1,63.1-7.3,88.2-15c19.4-5.9,36-14.5,49.3-25.3c13-10.5,22.3-22.8,27.7-36.3 l0.4,0.2c-5.4,13.6-14.8,25.9-27.8,36.5c-13.4,10.9-30.1,19.4-49.5,25.4C127.6,180.2,97.1,185.3,64.4,187.4z"></path> </g> <g> <path class="st4" d="M64.4,187.7l0-0.4c33.7-2,65.2-7.2,91.3-15c34.2-10.2,60.4-28.6,73.9-51.8l0.3,0.2 c-13.5,23.2-39.9,41.7-74.1,51.9C129.7,180.5,98.1,185.7,64.4,187.7z"></path> </g> <g> <path class="st4" d="M64.4,188l0-0.4c34.9-2,67.5-7.2,94.5-15.1c31.4-9.2,55.9-24.6,70.8-44.6l0.3,0.2 c-14.9,20-39.5,35.5-71,44.8C132,180.8,99.3,186,64.4,188z"></path> </g> <g> <path class="st4" d="M64.4,188.3l0-0.3c36.1-1.9,69.8-7.2,97.6-15.1c28.8-8.3,52.2-21.7,67.6-39l0.2,0.2 c-15.5,17.3-38.9,30.8-67.8,39.1C134.3,181.1,100.5,186.4,64.4,188.3z"></path> </g> <g> <path class="st4" d="M64.4,188.6l0-0.3c37.2-1.9,72.1-7.1,100.8-15.2c26.6-7.5,48.9-19.3,64.5-34.3l0.2,0.2 c-15.7,15-38,26.9-64.6,34.4C136.5,181.4,101.7,186.7,64.4,188.6z"></path> </g> <g> <path class="st4" d="M64.4,188.8l0-0.3c38.4-1.8,74.4-7.1,103.9-15.3c24.6-6.8,45.8-17.3,61.4-30.3l0.2,0.2 c-15.6,13.1-36.8,23.6-61.5,30.4C138.8,181.7,102.9,187,64.4,188.8z"></path> </g> <g> <path class="st4" d="M64.4,189.1l0-0.3c39.6-1.8,76.6-7.1,107.1-15.3c23.1-6.2,42.7-15.3,58.2-26.9l0.1,0.2 c-15.6,11.6-35.2,20.7-58.3,26.9C141,182,104,187.3,64.4,189.1z"></path> </g> <g> <path class="st4" d="M64.4,189.4l0-0.2c40.8-1.8,78.9-7.1,110.2-15.3c21.5-5.7,40-13.7,55.1-23.9l0.1,0.2 c-15.1,10.2-33.7,18.2-55.2,23.9C143.4,182.3,105.2,187.6,64.4,189.4z"></path> </g> <g> <path class="st4" d="M64.4,189.6l0-0.2c42-1.7,81.2-7,113.4-15.4c19.8-5.2,37.3-12.3,51.9-21.2l0.1,0.2 c-14.6,8.9-32.1,16.1-52,21.2C145.6,182.6,106.4,187.9,64.4,189.6z"></path> </g> </g> <rect x="64.4" y="105" class="st5" width="165.4" height="5.1"></rect> <rect x="131.4" y="205.8" class="st6" width="31.4" height="23.9"></rect> <rect x="112.6" y="229.7" class="st7" width="69.1" height="5.3"></rect> </g> <g> <g> <path class="st2" d="M41.6,140.7L41.6,140.7c-1.6,0.9-3.6,0.3-4.5-1.3l-9.3-16.9l5.8-3.2l9.3,16.9 C43.8,137.8,43.2,139.8,41.6,140.7z"></path> <ellipse transform="matrix(0.9501 -0.312 0.312 0.9501 -27.7533 29.8622)" class="st2" cx="79.5" cy="101.7" rx="6.7" ry="6.7"></ellipse> <path class="st2" d="M81.2,95.2c1,0.8,1.7,1.8,2.2,3.1c1.2,3.5-0.8,7.3-4.3,8.4c-1.3,0.4-2.6,0.4-3.8,0.1c1.7,1.4,4,1.9,6.3,1.1 c3.5-1.2,5.4-4.9,4.3-8.4C85.1,97.4,83.3,95.8,81.2,95.2z"></path> <rect x="24.8" y="109.7" transform="matrix(0.9501 -0.312 0.312 0.9501 -35.2976 15.2239)" class="st2" width="10.3" height="16.4"></rect> <path class="st7" d="M27.6,127.3L27.6,127.3l-5.1-15.6h0c-2,0.7-3.1,2.8-2.4,4.8l2.7,8.4C23.4,126.9,25.6,128,27.6,127.3z"></path> <g> <polygon class="st7" points="86,121.6 37.4,124.1 32.3,108.5 72.9,81.8 "></polygon> </g> <path class="st2" d="M88.8,124L88.8,124c-1,0.3-2.1-0.2-2.4-1.2L72.5,80.6c-0.3-1,0.2-2.1,1.2-2.4l0,0c1-0.3,2.1,0.2,2.4,1.2 l13.9,42.2C90.4,122.6,89.9,123.7,88.8,124z"></path> </g> <path class="st8" d="M113.8,59.3L85.6,92l33.5-27.2L113.8,59.3z M90.4,98.5l45.1-10.8l-2.4-7.3L90.4,98.5z M132.6,116.3l1-7.6 l-43.1-2.1L132.6,116.3z"></path> </g> <path class="st0" d="M143.4,17.8c0-7.8-9-14.2-20.1-14.2c-11.1,0-20.1,6.4-20.1,14.2c0,7.8,9,14.2,20.1,14.2c3,0,5.8-0.5,8.3-1.3 l6.6,4.5l-3-5.9C140.1,26.7,143.4,22.5,143.4,17.8z M114.4,20c-1.4,0-2.6-1.1-2.6-2.6c0-1.4,1.1-2.6,2.6-2.6c1.4,0,2.6,1.1,2.6,2.6 C116.9,18.9,115.8,20,114.4,20z M123.3,20c-1.4,0-2.6-1.1-2.6-2.6c0-1.4,1.1-2.6,2.6-2.6c1.4,0,2.6,1.1,2.6,2.6 C125.8,18.9,124.7,20,123.3,20z M132.2,20c-1.4,0-2.6-1.1-2.6-2.6c0-1.4,1.1-2.6,2.6-2.6c1.4,0,2.6,1.1,2.6,2.6 C134.7,18.9,133.6,20,132.2,20z"></path> <path class="st0" d="M192.5,43.6c-0.2,0-0.4,0-0.6-0.1c0,1,0.8,1.9,1.9,1.9h1v0.4c0,0.8,0.6,1.4,1.4,1.4h4.5c0.8,0,1.4-0.6,1.4-1.4 v-0.4h1c1,0,1.9-0.8,1.9-1.9c-0.2,0.1-0.4,0.1-0.6,0.1H192.5z M191.9,41.9H205v-1.9h-13.1V41.9z M191.9,38.2H205v-1.9h-13.1V38.2z M199,25.9l-0.5,0.3l-2.5-1.5l2.5,8.4l2.5-8.4L199,25.9z M209.4,6.4c-2.8-2.8-6.7-4.6-11-4.6c-0.6,0-1.2,0-1.8,0.1 c-7,0.8-12.8,6.5-13.6,13.5c-0.1,0.6-0.1,1.3-0.1,1.9c0,5,2.4,9.7,6.5,12.6c1.7,1.2,3.1,2.9,4,4.7h3.5l-4.2-14.4l5.9,3.5l5.9-3.5 l-4.2,14.4h3.5c0.9-1.9,2.3-3.5,4.1-4.8c3.9-2.9,6.3-7.6,6.3-12.5C214,13.1,212.2,9.3,209.4,6.4z"></path> <path class="st0" d="M49.9,65c-2.2,0-4,1.8-4,4c0,2.2,1.8,4,4,4c2.2,0,4-1.8,4-4C53.8,66.8,52.1,65,49.9,65z M40.6,59.3l3.5,3.6 c1.5-1.4,3.5-2.3,5.8-2.3c2.3,0,4.3,0.9,5.8,2.3l3.5-3.6c-2.4-2.3-5.7-3.7-9.3-3.7C46.3,55.5,43,57,40.6,59.3z M49.9,34.3 c-9.3,0-17.7,3.7-23.9,9.6l3.5,3.6c5.3-5.1,12.5-8.2,20.5-8.2c7.9,0,15.1,3.1,20.5,8.2l3.5-3.6C67.6,38,59.2,34.3,49.9,34.3z M33.4,51.7l3.5,3.6c3.4-3.2,8-5.2,13-5.2c5.1,0,9.6,2,13,5.2l3.5-3.6c-4.3-4.1-10.1-6.6-16.5-6.6C43.5,45.1,37.6,47.6,33.4,51.7z"></path> <path class="st8" d="M139.7,63.4c0.2,0.9,1,1.5,1.9,1.5h31.2c0.9,0,1.7-0.6,1.9-1.5l4.6-18.7h-44.2L139.7,63.4z M168.6,48 c0-0.6,0.5-1,1-1l0,0c0.6,0,1,0.5,1,1v13.1c0,0.6-0.5,1-1,1l0,0c-0.6,0-1-0.5-1-1V48z M162.4,48c0-0.6,0.5-1,1-1c0.6,0,1,0.5,1,1 v13.1c0,0.6-0.5,1-1,1c-0.6,0-1-0.5-1-1V48z M156.2,48c0-0.6,0.5-1,1-1c0.6,0,1,0.5,1,1v13.1c0,0.6-0.5,1-1,1c-0.6,0-1-0.5-1-1V48z M150,48c0-0.6,0.5-1,1-1c0.6,0,1,0.5,1,1v13.1c0,0.6-0.5,1-1,1c-0.6,0-1-0.5-1-1V48z M143.7,48c0-0.6,0.5-1,1-1c0.6,0,1,0.5,1,1 v13.1c0,0.6-0.5,1-1,1c-0.6,0-1-0.5-1-1V48z M179.2,39.3h-6.6l-9.6-9.6c-0.5-0.5-1.4-0.5-2,0c-0.5,0.5-0.5,1.4,0,2l7.6,7.6h-23 l7.6-7.6c0.5-0.5,0.5-1.4,0-2c-0.5-0.5-1.4-0.5-2,0l-9.6,9.6h-6.6c-1.1,0-2,0.9-2,2c0,1.1,0.9,2,2,2h44.1c1.1,0,2-0.9,2-2 C181.2,40.2,180.3,39.3,179.2,39.3z"></path> <g> <g id="XMLID_73_"> <g> <path class="st9" d="M164.4,104.8c3.4,0,6.2,2.8,6.2,6.2c0,3.4-2.8,6.2-6.2,6.2c-3.4,0-6.2-2.8-6.2-6.2 C158.2,107.6,161,104.8,164.4,104.8z M169.7,111c0-2.9-2.4-5.3-5.3-5.3c-2.9,0-5.3,2.4-5.3,5.3s2.4,5.3,5.3,5.3 C167.4,116.3,169.7,113.9,169.7,111z"></path> <path class="st10" d="M164.4,105.7c2.9,0,5.3,2.4,5.3,5.3s-2.4,5.3-5.3,5.3c-2.9,0-5.3-2.4-5.3-5.3S161.5,105.7,164.4,105.7z M169.4,111c0-2.7-2.2-4.9-4.9-4.9c-2.7,0-4.9,2.2-4.9,4.9c0,2.7,2.2,4.9,4.9,4.9C167.1,115.9,169.4,113.7,169.4,111z"></path> <path class="st11" d="M164.4,106.1c2.7,0,4.9,2.2,4.9,4.9c0,2.7-2.2,4.9-4.9,4.9c-2.7,0-4.9-2.2-4.9-4.9 C159.5,108.3,161.7,106.1,164.4,106.1z M168.7,111c0-2.4-1.9-4.3-4.3-4.3c-2.4,0-4.3,1.9-4.3,4.3c0,2.4,1.9,4.3,4.3,4.3 C166.8,115.3,168.7,113.4,168.7,111z"></path> <circle class="st9" cx="164.4" cy="111" r="4.3"></circle> </g> </g> <g> <path class="st10" d="M165.2,109c0.5,0.2,0.8,0.6,0.8,1.3v0.1h-0.6c0-0.3-0.1-0.6-0.3-0.8l-0.3,1.2c0.8,0.1,1.2,0.4,1.2,1.1v0.1 c0,0.8-0.6,1.2-1.5,1.2c-0.1,0-0.2,0-0.3,0l-0.2,0.7h-0.5l0.2-0.8c-0.5-0.2-0.8-0.7-0.8-1.2v0h0.6c0,0.3,0.1,0.5,0.3,0.7l0.3-1.2 c-0.8-0.1-1.2-0.5-1.2-1.1v-0.1c0-0.7,0.6-1.2,1.5-1.2c0.1,0,0.2,0,0.2,0l0.2-0.7h0.5L165.2,109z M164.2,110.7l0.3-1.3 c0,0-0.1,0-0.1,0h0c-0.5,0-0.8,0.2-0.8,0.6v0C163.6,110.4,163.7,110.6,164.2,110.7z M165.3,111.9L165.3,111.9 c0-0.4-0.2-0.6-0.7-0.7l-0.3,1.3c0.1,0,0.1,0,0.2,0h0C165,112.6,165.3,112.4,165.3,111.9z"></path> </g> </g> <g> <g id="XMLID_37_"> <g> <path class="st9" d="M160,75.5c4.3,0,7.8,3.5,7.8,7.8c0,4.3-3.5,7.8-7.8,7.8s-7.8-3.5-7.8-7.8C152.2,79,155.7,75.5,160,75.5z M166.6,83.3c0-3.7-3-6.7-6.7-6.7s-6.7,3-6.7,6.7c0,3.7,3,6.7,6.7,6.7S166.6,87,166.6,83.3z"></path> <path class="st10" d="M160,76.6c3.7,0,6.7,3,6.7,6.7c0,3.7-3,6.7-6.7,6.7s-6.7-3-6.7-6.7C153.3,79.6,156.3,76.6,160,76.6z M166.2,83.3c0-3.4-2.8-6.2-6.2-6.2c-3.4,0-6.2,2.8-6.2,6.2c0,3.4,2.8,6.2,6.2,6.2C163.4,89.5,166.2,86.7,166.2,83.3z"></path> <path class="st11" d="M160,77.1c3.4,0,6.2,2.8,6.2,6.2c0,3.4-2.8,6.2-6.2,6.2c-3.4,0-6.2-2.8-6.2-6.2 C153.8,79.9,156.5,77.1,160,77.1z M165.3,83.3c0-3-2.4-5.3-5.3-5.3s-5.3,2.4-5.3,5.3c0,3,2.4,5.3,5.3,5.3S165.3,86.3,165.3,83.3 z"></path> <circle class="st9" cx="160" cy="83.3" r="5.3"></circle> </g> </g> <g> <path class="st10" d="M160.9,80.8c0.7,0.2,1,0.8,1,1.6v0.1H161c0-0.4-0.1-0.8-0.3-0.9l-0.3,1.5c1,0.2,1.5,0.6,1.5,1.4v0.1 c0,1-0.7,1.5-1.9,1.5c-0.1,0-0.2,0-0.4,0l-0.2,0.9h-0.7l0.3-1.1c-0.7-0.3-1-0.8-1-1.6v0h0.8c0,0.4,0.1,0.7,0.4,0.9l0.4-1.5 c-1-0.2-1.5-0.6-1.5-1.4v-0.1c0-0.9,0.8-1.5,1.9-1.5c0.1,0,0.2,0,0.3,0l0.2-0.9h0.7L160.9,80.8z M159.7,82.9l0.4-1.6 c0,0-0.1,0-0.1,0h0c-0.6,0-1,0.3-1,0.8v0C158.9,82.5,159.1,82.8,159.7,82.9z M161.1,84.5L161.1,84.5c0-0.5-0.3-0.7-0.9-0.8 l-0.4,1.7c0.1,0,0.1,0,0.2,0h0C160.6,85.3,161.1,85,161.1,84.5z"></path> </g> </g> <g> <g id="XMLID_36_"> <g> <path class="st9" d="M146.8,96.7c3.4,0,6.2,2.8,6.2,6.2c0,3.4-2.8,6.2-6.2,6.2c-3.4,0-6.2-2.8-6.2-6.2 C140.6,99.5,143.4,96.7,146.8,96.7z M152.1,103c0-2.9-2.4-5.3-5.3-5.3c-2.9,0-5.3,2.4-5.3,5.3c0,2.9,2.4,5.3,5.3,5.3 C149.7,108.3,152.1,105.9,152.1,103z"></path> <path class="st10" d="M146.8,97.6c2.9,0,5.3,2.4,5.3,5.3c0,2.9-2.4,5.3-5.3,5.3c-2.9,0-5.3-2.4-5.3-5.3 C141.5,100,143.9,97.6,146.8,97.6z M151.8,103c0-2.7-2.2-4.9-4.9-4.9c-2.7,0-4.9,2.2-4.9,4.9c0,2.7,2.2,4.9,4.9,4.9 C149.5,107.9,151.8,105.7,151.8,103z"></path> <path class="st11" d="M146.8,98c2.7,0,4.9,2.2,4.9,4.9c0,2.7-2.2,4.9-4.9,4.9c-2.7,0-4.9-2.2-4.9-4.9 C141.9,100.2,144.1,98,146.8,98z M151.1,103c0-2.4-1.9-4.3-4.3-4.3c-2.4,0-4.3,1.9-4.3,4.3c0,2.4,1.9,4.3,4.3,4.3 C149.2,107.2,151.1,105.3,151.1,103z"></path> <circle class="st9" cx="146.8" cy="103" r="4.3"></circle> </g> </g> <g> <path class="st10" d="M147.5,100.9c0.5,0.2,0.8,0.6,0.8,1.3v0.1h-0.6c0-0.3-0.1-0.6-0.3-0.8l-0.3,1.2c0.8,0.1,1.2,0.4,1.2,1.1 v0.1c0,0.8-0.6,1.2-1.5,1.2c-0.1,0-0.2,0-0.3,0l-0.2,0.7h-0.5l0.2-0.8c-0.5-0.2-0.8-0.7-0.8-1.2v0h0.6c0,0.3,0.1,0.5,0.3,0.7 l0.3-1.2c-0.8-0.1-1.2-0.5-1.2-1.1V102c0-0.7,0.6-1.2,1.5-1.2c0.1,0,0.2,0,0.2,0l0.2-0.7h0.5L147.5,100.9z M146.6,102.6l0.3-1.3 c0,0-0.1,0-0.1,0h0c-0.5,0-0.8,0.2-0.8,0.6v0C146,102.3,146.1,102.5,146.6,102.6z M147.7,103.9L147.7,103.9 c0-0.4-0.2-0.6-0.7-0.7l-0.3,1.3c0.1,0,0.1,0,0.2,0h0C147.4,104.5,147.7,104.3,147.7,103.9z"></path> </g> </g> <g> <path class="st5" d="M158.9,189.2H77.3c-0.8,0-1.5-0.7-1.5-1.5v-52.8c0-0.8,0.7-1.5,1.5-1.5h81.6c0.8,0,1.5,0.7,1.5,1.5v52.8 C160.4,188.5,159.7,189.2,158.9,189.2z"></path> <circle class="st8" cx="80.3" cy="136.8" r="1.4"></circle> <circle class="st8" cx="86.4" cy="136.8" r="1.4"></circle> <circle class="st8" cx="92.5" cy="136.8" r="1.4"></circle> <rect x="109.9" y="143.3" class="st0" width="45.5" height="41.1"></rect> <rect x="82.4" y="143.3" class="st0" width="16.1" height="1.1"></rect> <rect x="82.4" y="148.5" class="st0" width="24.1" height="1.1"></rect> <rect x="82.4" y="151.9" class="st0" width="24.1" height="1.1"></rect> <rect x="82.4" y="155.3" class="st0" width="24.1" height="1.1"></rect> <rect x="82.4" y="158.7" class="st0" width="24.1" height="1.1"></rect> <rect x="82.4" y="162.2" class="st0" width="24.1" height="1.1"></rect> <rect x="82.4" y="165.6" class="st0" width="24.1" height="1.1"></rect> <rect x="82.4" y="169" class="st0" width="24.1" height="1.1"></rect> <rect x="82.4" y="172.4" class="st0" width="15.8" height="1.1"></rect> <g> <rect x="113.9" y="148.3" class="st5" width="5.7" height="31"></rect> <rect x="124.5" y="148.3" class="st5" width="5.7" height="31"></rect> <rect x="135.2" y="148.3" class="st5" width="5.7" height="31"></rect> <rect x="145.8" y="148.3" class="st5" width="5.7" height="31"></rect> </g> <g> <rect x="113.9" y="171" class="st8" width="5.7" height="8.4"></rect> <rect x="124.5" y="166.6" class="st8" width="5.7" height="12.7"></rect> <rect x="135.2" y="156.4" class="st8" width="5.7" height="23"></rect> <rect x="145.8" y="161.1" class="st8" width="5.7" height="18.3"></rect> </g> </g> <g> <path class="st12" d="M170.2,142l5.1,6.4l-1.5,1l-0.3,0.2c-0.8,0.5-1.8,0.2-2.2-0.7l-1.9-4.6c-0.2-0.5-0.1-1,0.1-1.4L170.2,142z"></path> <path class="st13" d="M170.2,142l-0.3,0.5c0.5,0.5,0.9,1,1.3,1.6c1.2,1.9,1.8,3.9,1.8,5.8c0.2,0,0.3-0.1,0.5-0.2l0.3-0.2l1.5-1 L170.2,142z"></path> <path class="st12" d="M175.5,135.9l12,2.5c1.5,0.3,2.9,1.2,3.7,2.6l8,12.2l8.7,9.3l-10.5,6.9l-11.7-5.2c-0.8-0.3-1.4-0.8-2-1.4 l4.9-12.3l-6.3-5.6l-7.3-8.1c-0.2-0.2-0.4-0.4-0.6-0.5C174.6,135.9,175,135.8,175.5,135.9z"></path> <path class="st13" d="M183.5,144l-2.1-1.2c-2.4-2.3-4.5-4.6-6.1-6.9c-0.4,0-0.8,0.1-1.1,0.3c0.2,0.2,0.4,0.3,0.6,0.5l4.4,4.8 l-0.1-0.1l3.1,3.3l6.3,5.6L183.5,144z"></path> <rect x="139.2" y="125" transform="matrix(0.979 0.2039 -0.2039 0.979 30.8386 -29.8024)" class="st9" width="41.7" height="19.4"></rect> <path class="st14" d="M140.4,135.5l2-9.4c1.7,0.4,3.3-0.7,3.7-2.4l31.3,6.5c-0.4,1.7,0.7,3.3,2.4,3.7l-2,9.4 c-1.7-0.4-3.3,0.7-3.7,2.4l-31.3-6.5C143.1,137.5,142.1,135.9,140.4,135.5z"></path> <ellipse transform="matrix(0.2039 -0.979 0.979 0.2039 -4.5098 263.9229)" class="st9" cx="160" cy="134.7" rx="5.9" ry="5.9"></ellipse> <g> <path class="st14" d="M161.9,136.5c-0.1,0.4-0.3,0.8-0.7,1c-0.4,0.2-0.9,0.3-1.5,0.3l-0.2,1.1l-0.6-0.1l0.2-1.1 c-0.4-0.1-0.7-0.2-1-0.3c-0.3-0.1-0.6-0.3-0.8-0.4l0.2-0.8c0.2,0.2,0.5,0.3,0.9,0.5c0.3,0.1,0.6,0.3,0.9,0.3l0.4-2.1 c-0.6-0.3-1-0.7-1.2-1c-0.2-0.3-0.3-0.7-0.2-1.2c0.1-0.4,0.3-0.7,0.7-0.9c0.4-0.2,0.9-0.3,1.4-0.2l0.2-0.9l0.6,0.1l-0.2,0.9 c0.6,0.1,1.1,0.4,1.6,0.7l-0.4,0.6c-0.4-0.3-0.9-0.5-1.4-0.6l-0.4,2.1c0.5,0.3,0.8,0.5,1,0.7c0.2,0.2,0.4,0.4,0.4,0.6 C162,135.9,162,136.2,161.9,136.5z M159.1,132.8c-0.1,0.2,0,0.5,0.1,0.6c0.1,0.2,0.3,0.4,0.7,0.6l0.4-1.9c-0.3,0-0.6,0-0.8,0.2 C159.3,132.4,159.1,132.6,159.1,132.8z M161.1,136.4c0-0.2,0-0.4-0.1-0.6c-0.1-0.2-0.4-0.4-0.7-0.6l-0.4,1.9 C160.6,137.1,161,136.9,161.1,136.4z"></path> </g> <path class="st13" d="M199.2,153.1l-8-12.2c-0.6-0.9-1.3-1.5-2.2-2l8.1,13.7l8.9,10.9l1.9-1.2L199.2,153.1z"></path> <path class="st12" d="M179.1,154l-1-2l-2.8-3.5l-5.1-6.4l-0.6-0.8c-1.2-1.5-0.9-3.6,0.5-4.8c0.1-0.1,0.2-0.2,0.3-0.2 c1.2-0.8,2.7-0.7,3.9,0c0.2,0.2,0.4,0.3,0.6,0.5l7.3,8.1l6.3,5.6l-4.9,12.3c-0.4-0.4-0.7-0.8-0.9-1.3L179.1,154z"></path> <path class="st12" d="M175.3,148.5l2.8,3.5l1,2l-0.4,0.3c-0.7,0.4-1.6,0.3-2-0.4l-2.8-4.3L175.3,148.5z"></path> <path class="st15" d="M175.3,139.2l-3.4,2.9l-1.4-1.7c-0.8-0.9-0.7-2.3,0.3-3.1l0,0c0.9-0.8,2.3-0.7,3.1,0.3L175.3,139.2z"></path> <path class="st13" d="M176.8,154c0.5,0.5,1.2,0.6,1.8,0.2l0.4-0.3l-1-2l-0.7-0.9C177.4,152,177.2,153.1,176.8,154z"></path> <rect x="192.7" y="163.4" transform="matrix(0.8364 -0.5481 0.5481 0.8364 -57.3874 137.4207)" class="st16" width="17.8" height="3"></rect> <rect x="206.3" y="159.3" transform="matrix(0.8364 -0.5481 0.5481 0.8364 -54.1542 140.1526)" class="st17" width="3" height="3"></rect> <polygon class="st2" points="238.5,196 217.7,206.4 193.7,171.8 211,160.4 "></polygon> <rect x="213.4" y="159.7" transform="matrix(0.8364 -0.5481 0.5481 0.8364 -58.7404 146.2417)" class="st17" width="4.4" height="23.7"></rect> </g> <g> <rect x="215.2" y="183" class="st18" width="38.7" height="59.8"></rect> <path class="st2" d="M213.8,179.2V247c0,2.2,1.6,3.9,3.6,3.9h34.2c2,0,3.6-1.8,3.6-3.9v-67.8c0-2.2-1.6-3.9-3.6-3.9h-34.2 C215.5,175.3,213.8,177,213.8,179.2z M253.9,242.8h-38.7V183h38.7V242.8z"></path> <path class="st7" d="M239,180h-8.8c-0.3,0-0.5-0.2-0.5-0.5l0,0c0-0.3,0.2-0.5,0.5-0.5h8.8c0.3,0,0.5,0.2,0.5,0.5l0,0 C239.5,179.8,239.3,180,239,180z"></path> <circle class="st7" cx="234.6" cy="247.2" r="2.4"></circle> <rect x="232.1" y="184.5" class="st5" width="4.9" height="1.3"></rect> <rect x="246.2" y="184.5" class="st5" width="4.9" height="1.3"></rect> <rect x="218" y="184.5" class="st5" width="4.9" height="1.3"></rect> <g> <path class="st8" d="M222.5,196h-2.7c-1,0-1.9-0.8-1.9-1.9v-2.7c0-1,0.8-1.9,1.9-1.9h2.7c1,0,1.9,0.8,1.9,1.9v2.7 C224.4,195.1,223.6,196,222.5,196z"></path> <path class="st9" d="M231.5,196h-2.7c-1,0-1.9-0.8-1.9-1.9v-2.7c0-1,0.8-1.9,1.9-1.9h2.7c1,0,1.9,0.8,1.9,1.9v2.7 C233.3,195.1,232.5,196,231.5,196z"></path> <path class="st8" d="M240.4,196h-2.7c-1,0-1.9-0.8-1.9-1.9v-2.7c0-1,0.8-1.9,1.9-1.9h2.7c1,0,1.9,0.8,1.9,1.9v2.7 C242.3,195.1,241.4,196,240.4,196z"></path> <path class="st7" d="M249.3,196h-2.7c-1,0-1.9-0.8-1.9-1.9v-2.7c0-1,0.8-1.9,1.9-1.9h2.7c1,0,1.9,0.8,1.9,1.9v2.7 C251.2,195.1,250.4,196,249.3,196z"></path> </g> <g> <path class="st5" d="M222.5,206.2h-2.7c-1,0-1.9-0.8-1.9-1.9v-2.7c0-1,0.8-1.9,1.9-1.9h2.7c1,0,1.9,0.8,1.9,1.9v2.7 C224.4,205.3,223.6,206.2,222.5,206.2z"></path> <path class="st7" d="M231.5,206.2h-2.7c-1,0-1.9-0.8-1.9-1.9v-2.7c0-1,0.8-1.9,1.9-1.9h2.7c1,0,1.9,0.8,1.9,1.9v2.7 C233.3,205.3,232.5,206.2,231.5,206.2z"></path> <path class="st9" d="M240.4,206.2h-2.7c-1,0-1.9-0.8-1.9-1.9v-2.7c0-1,0.8-1.9,1.9-1.9h2.7c1,0,1.9,0.8,1.9,1.9v2.7 C242.3,205.3,241.4,206.2,240.4,206.2z"></path> <path class="st5" d="M249.3,206.2h-2.7c-1,0-1.9-0.8-1.9-1.9v-2.7c0-1,0.8-1.9,1.9-1.9h2.7c1,0,1.9,0.8,1.9,1.9v2.7 C251.2,205.3,250.4,206.2,249.3,206.2z"></path> </g> <g> <path class="st9" d="M222.5,216.3h-2.7c-1,0-1.9-0.8-1.9-1.9v-2.7c0-1,0.8-1.9,1.9-1.9h2.7c1,0,1.9,0.8,1.9,1.9v2.7 C224.4,215.5,223.6,216.3,222.5,216.3z"></path> <path class="st5" d="M231.5,216.3h-2.7c-1,0-1.9-0.8-1.9-1.9v-2.7c0-1,0.8-1.9,1.9-1.9h2.7c1,0,1.9,0.8,1.9,1.9v2.7 C233.3,215.5,232.5,216.3,231.5,216.3z"></path> </g> </g> <g> <g> <g> <path class="st1" d="M85.4,243.3H32v-33.6h53.5V243.3z M32.4,242.9h52.7v-32.8H32.4V242.9z"></path> </g> <g> <rect x="32.2" y="237.3" class="st1" width="53.1" height="0.4"></rect> </g> <g> <rect x="32.2" y="231.8" class="st1" width="53.1" height="0.4"></rect> </g> <g> <rect x="32.2" y="226.3" class="st1" width="53.1" height="0.4"></rect> </g> <g> <rect x="32.2" y="220.7" class="st1" width="53.1" height="0.4"></rect> </g> <g> <rect x="32.2" y="215.2" class="st1" width="53.1" height="0.4"></rect> </g> <g> <rect x="76.2" y="209.9" class="st1" width="0.4" height="33.2"></rect> </g> <g> <rect x="67.4" y="209.9" class="st1" width="0.4" height="33.2"></rect> </g> <g> <rect x="58.5" y="209.9" class="st1" width="0.4" height="33.2"></rect> </g> <g> <rect x="49.7" y="209.9" class="st1" width="0.4" height="33.2"></rect> </g> <g> <rect x="40.8" y="209.9" class="st1" width="0.4" height="33.2"></rect> </g> </g> <g> <path class="st8" d="M54.3,237.9C54.3,237.9,54.3,237.9,54.3,237.9c-0.2,0-0.3-0.1-0.4-0.3l-4.3-20.5l-5,9.5 c-0.1,0.1-0.2,0.2-0.3,0.2H33.5c-0.2,0-0.4-0.2-0.4-0.4c0-0.2,0.2-0.4,0.4-0.4h10.7l5.4-10.3c0.1-0.1,0.2-0.2,0.4-0.2 c0.2,0,0.3,0.1,0.3,0.3l4.2,20.1l3.9-12.3c0-0.1,0.1-0.2,0.2-0.3c0.1,0,0.2,0,0.3,0l3.9,2.6h21.4c0.2,0,0.4,0.2,0.4,0.4 c0,0.2-0.2,0.4-0.4,0.4H62.8c-0.1,0-0.1,0-0.2-0.1l-3.6-2.3l-4.2,13.2C54.7,237.8,54.5,237.9,54.3,237.9z"></path> </g> <circle class="st7" cx="49.9" cy="216" r="1.1"></circle> <circle class="st7" cx="44.4" cy="226.5" r="1.1"></circle> <circle class="st7" cx="33.2" cy="226.5" r="1.1"></circle> <circle class="st7" cx="54.3" cy="237.5" r="1.1"></circle> <circle class="st7" cx="58.7" cy="223.8" r="1.1"></circle> <circle class="st7" cx="84.3" cy="226.5" r="1.1"></circle> </g> <path class="st0" d="M50.3,176h-4.4c-0.2-2.2-2-3.9-4.2-3.9h-6.6c0.1-0.5,0.2-1,0.2-1.5c0-3.2-2.6-5.7-5.7-5.7H19.5 c-3.2,0-5.7,2.6-5.7,5.7c0,0.5,0.1,1,0.2,1.5h-0.9c-2.2,0-4,1.7-4.2,3.9H7.6c-3,0-5.5,2.5-5.5,5.5c0,3,2.5,5.5,5.5,5.5h42.8 c3,0,5.5-2.5,5.5-5.5C55.8,178.5,53.3,176,50.3,176z"></path> <path class="st0" d="M41.6,81.4l-10.6-9.9c-0.5-0.4-1.2-0.4-1.6,0l-10.6,9.9c-0.2,0.2-0.4,0.5-0.4,0.9v13.4c0,0.3,0.1,0.6,0.3,0.8 c0.2,0.2,0.5,0.3,0.8,0.3h7.3c0,0,0,0,0,0c0.3,0,0.6-0.1,0.8-0.3c0.2-0.2,0.3-0.5,0.3-0.8v-8.1h4.2v8.1c0,0.7,0.5,1.2,1.2,1.2 c0,0,0,0,0,0h7.3c0.3,0,0.6-0.1,0.8-0.3c0.2-0.2,0.3-0.5,0.3-0.8V82.3C42,81.9,41.9,81.6,41.6,81.4z M39.7,94.5h-4.9v-8.1 c0-0.3-0.1-0.6-0.3-0.8c-0.2-0.2-0.5-0.3-0.8-0.3h-6.6c-0.3,0-0.6,0.1-0.8,0.3c-0.2,0.2-0.3,0.5-0.3,0.8v8.1h-4.9V82.8l9.4-8.8 l9.4,8.8V94.5z"></path> <g> <path class="st8" d="M239.8,141.2c0,4.6-1.6,8.2-6.1,8.2h-23.4c-4.6,0-6.6-3.7-6.6-8.2v-8.7c0-4.6,1.8-8.2,6.4-8.2h23.8 c4.6,0,5.9,3.7,5.9,8.2V141.2z"></path> <polygon class="st5" points="218.1,131.9 227.9,137 218.1,142.2 "></polygon> </g> <path class="st18" d="M100,34.6h4.1v-6.5H99l0,0h-1.1c0,0-3.9-0.1-6.4,3.1c0,0-1.7,1.6-1.7,6.3h0v4.9h-6.1v6.9h6.1v17.9h7.1V49.3 h6.1l0.8-6.9h-6.9v-4.9h0C96.9,36.9,97.2,34.5,100,34.6z"></path> <g> <path class="st9" d="M242.8,46.3h-13.1c-5.8,0-10.5,4.7-10.5,10.5V70c0,5.8,4.7,10.5,10.5,10.5h13.1c5.8,0,10.5-4.7,10.5-10.5 V56.8C253.4,51,248.7,46.3,242.8,46.3z M250.1,68.7c0,4.7-3.8,8.5-8.5,8.5H231c-4.7,0-8.5-3.8-8.5-8.5V58.1c0-4.7,3.8-8.5,8.5-8.5 h10.6c4.7,0,8.5,3.8,8.5,8.5V68.7z"></path> <path class="st9" d="M236.7,54.4c-5,0-9,4-9,9c0,5,4,9,9,9c5,0,9-4,9-9C245.8,58.5,241.7,54.4,236.7,54.4z M236.7,68.9 c-3,0-5.4-2.4-5.4-5.4c0-3,2.4-5.4,5.4-5.4c3,0,5.4,2.4,5.4,5.4C242.2,66.5,239.7,68.9,236.7,68.9z"></path> <circle class="st9" cx="245.1" cy="54.3" r="2.3"></circle> </g> <g> <path class="st9" d="M92.8,238c0-13.5,11-24.6,24.6-24.6c13.5,0,24.6,11,24.6,24.6c0,13.5-11,24.6-24.6,24.6 C103.8,262.5,92.8,251.5,92.8,238z"></path> <g> <circle class="st18" cx="117.3" cy="238" r="12.2"></circle> <g> <path class="st2" d="M92.8,238c0-13.5,11-24.6,24.6-24.6c13.5,0,24.6,11,24.6,24.6c0,13.5-11,24.6-24.6,24.6 C103.8,262.5,92.8,251.5,92.8,238z M95.1,238c0,12.3,10,22.2,22.2,22.2c12.3,0,22.2-10,22.2-22.2c0-12.3-10-22.2-22.2-22.2 C105.1,215.7,95.1,225.7,95.1,238z"></path> </g> <path class="st7" d="M97.4,238c0,11,8.9,19.9,19.9,19.9c11,0,19.9-8.9,19.9-19.9c0-11-8.9-19.9-19.9-19.9 C106.4,218.1,97.4,227,97.4,238z M105.6,238c0-6.5,5.2-11.7,11.7-11.7c6.5,0,11.7,5.2,11.7,11.7c0,6.5-5.2,11.7-11.7,11.7 C110.9,249.7,105.6,244.4,105.6,238z"></path> <circle class="st8" cx="117.3" cy="238" r="5.8"></circle> <g> <polygon class="st6" points="92.5,218.1 96.7,217.3 90.9,211.5 86.7,212.3 "></polygon> <polygon class="st6" points="97.5,213.2 96.7,217.3 90.9,211.5 91.7,207.4 "></polygon> <g> <rect x="103.3" y="205.9" transform="matrix(0.7071 -0.7071 0.7071 0.7071 -128.5981 139.8539)" class="st2" width="2.3" height="38.6"></rect> </g> <g> <path class="st2" d="M84.4,211.6l6.9-1.4L99,218l-6.9,1.4L84.4,211.6z M90.5,212.8l-1.4,0.3l3.8,3.8l1.4-0.3L90.5,212.8z"></path> </g> <g> <path class="st2" d="M89.6,211.9L91,205l7.8,7.8l-1.4,6.9L89.6,211.9z M92.4,209.7l-0.3,1.4l3.8,3.8l0.3-1.4L92.4,209.7z"></path> </g> <g> <polygon class="st2" points="113.2,240 119.3,240 119.3,233.8 117,233.8 117,237.6 113.2,237.6 "></polygon> </g> </g> </g> </g> <g> <polygon class="st0" points="25.6,199.7 15.6,194 15.6,205.5 "></polygon> <polygon class="st0" points="14.7,199.7 4.7,194 4.7,205.5 "></polygon> </g> <g> <polygon class="st1" points="196.2,220.2 190.5,230.2 202,230.2 "></polygon> <rect x="190.9" y="230.8" transform="matrix(6.123234e-17 -1 1 6.123234e-17 -37.6929 430.1924)" class="st1" width="10.6" height="6.2"></rect> </g> <path class="st1" d="M177.7,249.7l1.4-2.5h5.5c-0.8-1.4-2.3-2.3-4.1-2.3c-2,0-3.6,1.2-4.4,2.9h-19.9c-0.7-1.7-2.4-2.9-4.4-2.9 c-1.7,0-3.2,0.9-4.1,2.3h5.5l1.4,2.5l-1.4,2.5h-5.5c0.8,1.4,2.3,2.3,4.1,2.3c2,0,3.6-1.2,4.4-2.9h19.9c0.7,1.7,2.4,2.9,4.4,2.9 c1.7,0,3.2-0.9,4.1-2.3h-5.5L177.7,249.7z"></path> <polyline class="st1" points="259.9,258.3 270.9,246.1 258.1,246.1 269.1,233.9 "></polyline> <rect x="28.1" y="246.7" class="st2" width="61" height="1.2"></rect> <rect x="8.3" y="226.9" transform="matrix(6.123234e-17 -1 1 6.123234e-17 -198.7651 256.2112)" class="st2" width="40.8" height="1.2"></rect> <g> <rect x="194.3" y="257.3" class="st8" width="4.6" height="4.6"></rect> <rect x="202.6" y="257.3" class="st1" width="4.6" height="4.6"></rect> <rect x="210.6" y="257.3" class="st1" width="4.6" height="4.6"></rect> </g> <g> <rect x="47.6" y="161.7" transform="matrix(6.123234e-17 -1 1 6.123234e-17 -114.1465 213.8821)" class="st2" width="4.6" height="4.6"></rect> <rect x="47.6" y="153.4" transform="matrix(6.123234e-17 -1 1 6.123234e-17 -105.8417 205.5773)" class="st8" width="4.6" height="4.6"></rect> <rect x="47.6" y="145.4" transform="matrix(6.123234e-17 -1 1 6.123234e-17 -97.814 197.5496)" class="st3" width="4.6" height="4.6"></rect> </g> <g> <rect x="205.4" y="69.3" transform="matrix(6.123234e-17 -1 1 6.123234e-17 136.1048 279.3579)" class="st9" width="4.6" height="4.6"></rect> <rect x="205.4" y="61" transform="matrix(6.123234e-17 -1 1 6.123234e-17 144.4096 271.0531)" class="st8" width="4.6" height="4.6"></rect> <rect x="205.4" y="53" transform="matrix(6.123234e-17 -1 1 6.123234e-17 152.4373 263.0255)" class="st0" width="4.6" height="4.6"></rect> </g> </g> <g> </g> <g> </g> <g> </g> <g> </g> <g> </g> <g> </g> <g> </g> <g> </g> <g> </g> <g> </g> <g> </g> <g> </g> <g> </g> <g> </g> <g> </g> </svg>